<svg id="구성_요소_12_1" data-name="구성 요소 12 – 1" xmlns="http://www.w3.org/2000/svg" xmlns:xlink="http://www.w3.org/1999/xlink" width="90.358" height="13.45" viewBox="0 0 90.358 13.45">
  <defs>
    <clipPath id="clip-path">
      <rect id="사각형_34" data-name="사각형 34" width="90.358" height="13.45" transform="translate(0 0)" fill="none"/>
    </clipPath>
  </defs>
  <g id="그룹_23" data-name="그룹 23" transform="translate(0 0)" clip-path="url(#clip-path)">
    <path id="패스_98" data-name="패스 98" d="M17.03,6.431v7.02H6.391C1.711,13.451,0,11.17,0,6.706,0,2.262,1.711,0,6.391,0H16.872V2.105H6.391C2.97,2.105,2.2,3.678,2.2,6.706c0,3.067.767,4.621,4.188,4.621h8.476v-4.9Z"/>
    <path id="패스_99" data-name="패스 99" d="M27,13.45H24.813V0h1.652c3.42,0,4.365,1.16,7.983,6.076,3.422,4.66,3.815,5.192,5.586,5.192h.1V0h2.182V13.45H40.662c-3.2,0-4.169-1.081-7.945-6.056C29.08,2.634,28.805,2.2,27.094,2.2H27Z"/>
    <path id="패스_100" data-name="패스 100" d="M56.187,2.065c-2.989,0-4.051,1.259-4.208,3.7H66.511V7.709H51.979c.157,2.418,1.219,3.658,4.208,3.658h10.6v2.084h-10.6c-4.68,0-6.411-2.262-6.411-6.726S51.507,0,56.187,0h10.6V2.065Z"/>
    <path id="패스_101" data-name="패스 101" d="M87.369,13.45,82.61,8.632a8.481,8.481,0,0,1-.885-.964,6.792,6.792,0,0,1-.865.964L76.1,13.45h-2.99l6.981-6.863L73.368,0H76.4L80.86,4.523a7.1,7.1,0,0,1,.865,1,7.556,7.556,0,0,1,.885-1L87.055,0h3.008L83.358,6.587l7,6.863Z"/>
  </g>
</svg>
