<svg id="구성_요소_13_1" data-name="구성 요소 13 – 1" xmlns="http://www.w3.org/2000/svg" xmlns:xlink="http://www.w3.org/1999/xlink" width="40" height="27.679" viewBox="0 0 40 27.679">
  <defs>
    <clipPath id="clip-path">
      <rect id="사각형_1" data-name="사각형 1" width="40" height="27.679" fill="none"/>
    </clipPath>
  </defs>
  <g id="그룹_1" data-name="그룹 1" clip-path="url(#clip-path)">
    <path id="패스_1" data-name="패스 1" d="M26.16,13.84,28.1,15.775l9.165-9.165v15.05a3.109,3.109,0,0,1-5.306,2.2L21.936,13.84l12.8-12.8H30.868L20,11.9,9.981,1.884A5.755,5.755,0,0,0,3.609.617,5.756,5.756,0,0,0,0,6.018V27.679l13.84-13.84L11.9,11.9,2.738,21.068V6.018a3.108,3.108,0,0,1,5.306-2.2L19.856,15.632,30.019,25.8a5.765,5.765,0,0,0,4.1,1.727,5.935,5.935,0,0,0,2.275-.46A5.756,5.756,0,0,0,40,21.661V0Z"/>
    <path id="패스_2" data-name="패스 2" d="M11.88,46.726h3.872l8.757-8.756-1.936-1.936Z" transform="translate(-6.621 -20.082)" fill="#e30613"/>
  </g>
</svg>
